<svg width="20" height="20" viewBox="0 0 20 20" fill="none" xmlns="http://www.w3.org/2000/svg">
<path d="M9.99995 1.25049C11.9891 1.25049 13.8967 2.04066 15.3033 3.44719C16.7098 4.85371 17.4999 6.76136 17.4999 8.75049C17.4999 12.3342 15.0812 15.633 10.335 18.653C10.2348 18.7166 10.1186 18.7504 9.99995 18.7504C9.88131 18.7504 9.76511 18.7166 9.66495 18.653C4.9187 15.633 2.49995 12.3342 2.49995 8.75049C2.49995 6.76136 3.29013 4.85371 4.69665 3.44719C6.10317 2.04066 8.01083 1.25049 9.99995 1.25049ZM9.99995 6.25049C9.33691 6.25049 8.70103 6.51388 8.23218 6.98272C7.76334 7.45156 7.49995 8.08745 7.49995 8.75049C7.49995 9.41353 7.76334 10.0494 8.23218 10.5183C8.70103 10.9871 9.33691 11.2505 9.99995 11.2505C10.663 11.2505 11.2989 10.9871 11.7677 10.5183C12.2366 10.0494 12.5 9.41353 12.5 8.75049C12.5 8.08745 12.2366 7.45156 11.7677 6.98272C11.2989 6.51388 10.663 6.25049 9.99995 6.25049Z" fill="white"/>
</svg>
