<svg width="16" height="18" viewBox="0 0 16 18" fill="none" xmlns="http://www.w3.org/2000/svg">
<path d="M7.99995 0.250488C9.98907 0.250488 11.8967 1.04066 13.3033 2.44719C14.7098 3.85371 15.4999 5.76136 15.4999 7.75049C15.4999 11.3342 13.0812 14.633 8.33495 17.653C8.23479 17.7166 8.1186 17.7504 7.99995 17.7504C7.88131 17.7504 7.76511 17.7166 7.66495 17.653C2.9187 14.633 0.499954 11.3342 0.499954 7.75049C0.499954 5.76136 1.29013 3.85371 2.69665 2.44719C4.10317 1.04066 6.01083 0.250488 7.99995 0.250488ZM7.99995 5.25049C7.33691 5.25049 6.70103 5.51388 6.23218 5.98272C5.76334 6.45156 5.49995 7.08745 5.49995 7.75049C5.49995 8.41353 5.76334 9.04941 6.23218 9.51825C6.70103 9.98709 7.33691 10.2505 7.99995 10.2505C8.66299 10.2505 9.29888 9.98709 9.76772 9.51825C10.2366 9.04941 10.5 8.41353 10.5 7.75049C10.5 7.08745 10.2366 6.45156 9.76772 5.98272C9.29888 5.51388 8.66299 5.25049 7.99995 5.25049Z" fill="white"/>
</svg>
