<svg width="16" height="16" viewBox="0 0 16 16" fill="none" xmlns="http://www.w3.org/2000/svg">
<path d="M11.9446 9.54699C11.7719 9.71433 11.6926 9.95633 11.7319 10.1937L12.3246 13.4737C12.3746 13.7517 12.2573 14.033 12.0246 14.1937C11.7966 14.3603 11.4933 14.3803 11.2446 14.247L8.29195 12.707C8.18928 12.6523 8.07528 12.623 7.95862 12.6197H7.77795C7.71528 12.629 7.65395 12.649 7.59795 12.6797L4.64462 14.227C4.49862 14.3003 4.33328 14.3263 4.17128 14.3003C3.77662 14.2257 3.51328 13.8497 3.57795 13.453L4.17128 10.173C4.21062 9.93366 4.13128 9.69033 3.95862 9.52033L1.55128 7.18699C1.34995 6.99166 1.27995 6.69833 1.37195 6.43366C1.46128 6.16966 1.68928 5.97699 1.96462 5.93366L5.27795 5.45299C5.52995 5.42699 5.75128 5.27366 5.86462 5.04699L7.32462 2.05366C7.35928 1.98699 7.40395 1.92566 7.45795 1.87366L7.51795 1.82699C7.54928 1.79233 7.58528 1.76366 7.62528 1.74033L7.69795 1.71366L7.81128 1.66699H8.09195C8.34262 1.69299 8.56328 1.84299 8.67862 2.06699L10.1579 5.04699C10.2646 5.26499 10.4719 5.41633 10.7113 5.45299L14.0246 5.93366C14.3046 5.97366 14.5386 6.16699 14.6313 6.43366C14.7186 6.70099 14.6433 6.99433 14.4379 7.18699L11.9446 9.54699Z" fill="white"/>
</svg>
